P3
64 64
255
198 198 229
199 199 229
198 198 229
198 198 229
198 198 229
198 198 229
198 198 229
198 198 229
198 198 229
198 198 229
198 198 228
198 198 229
198 198 229
198 198 229
198 198 228
198 198 229
198 198 229
198 198 228
198 198 229
198 198 228
198 198 228
198 198 228
198 198 228
198 198 228
198 198 228
198 198 228
198 198 228
198 198 228
198 198 228
198 198 228
198 198 228
197 197 228
198 198 228
197 197 228
198 198 228
198 198 228
198 198 228
198 198 228
198 198 228
198 198 228
198 198 228
198 198 228
198 198 228
198 198 228
198 198 229
198 198 228
198 198 228
198 198 229
198 198 228
198 198 229
198 198 229
198 198 229
198 198 229
198 198 229
198 198 229
198 198 229
198 198 229
198 198 229
198 198 229
198 198 229
198 198 229
199 199 229
198 198 229
198 198 229
199 199 229
199 199 229
199 199 229
199 199 229
199 199 229
199 199 229
199 199 229
199 199 229
198 198 229
198 198 229
199 199 229
198 198 229
199 199 229
198 198 229
198 198 229
198 198 229
198 198 229
198 198 229
198 198 229
198 198 229
198 198 229
198 198 229
198 198 229
198 198 229
198 198 229
198 198 229
198 198 229
198 198 229
198 198 229
198 198 229
198 198 229
198 198 228
198 198 229
198 198 229
198 198 229
198 198 229
198 198 229
198 198 229
198 198 229
198 198 229
198 198 229
198 198 229
198 198 229
198 198 229
198 198 229
198 198 229
198 198 229
198 198 229
198 198 229
199 199 229
199 199 229
199 199 229
198 198 229
199 199 229
199 199 229
198 198 229
199 199 229
199 199 229
199 199 229
199 199 229
199 199 229
199 199 229
199 199 229
199 199 229
199 199 229
199 199 229
199 199 229
199 199 229
199 199 229
199 199 229
199 199 229
199 199 229
199 199 229
199 199 229
199 199 229
199 199 229
199 199 229
199 199 229
199 199 229
199 199 229
199 199 229
199 199 229
199 199 229
199 199 229
199 199 229
199 199 229
198 198 229
199 199 229
199 199 229
199 199 229
199 199 229
199 199 229
198 198 229
199 199 229
198 198 229
199 199 229
199 199 229
199 199 229
198 198 229
199 199 229
199 199 229
199 199 229
198 198 229
199 199 229
199 199 229
198 198 229
198 198 229
199 199 229
199 199 229
199 199 229
199 199 229
199 199 229
199 199 229
199 199 229
199 199 229
199 199 229
199 199 229
199 199 229
199 199 229
199 199 229
199 199 229
199 199 229
199 199 229
199 199 229
199 199 229
199 199 229
199 199 229
199 199 229
200 200 229
200 200 229
200 200 229
200 200 229
200 200 229
199 199 229
200 200 229
200 200 229
199 199 229
200 200 229
200 200 229
199 199 229
199 199 229
199 199 229
199 199 229
199 199 229
199 199 229
199 199 229
199 199 229
199 199 229
199 199 229
199 199 229
199 199 229
199 199 229
199 199 229
199 199 229
199 199 229
199 199 229
199 199 229
199 199 229
199 199 229
199 199 229
199 199 229
199 199 229
199 199 229
199 199 229
199 199 229
199 199 229
199 199 229
199 199 229
199 199 229
199 199 229
199 199 229
199 199 229
199 199 229
199 199 229
199 199 229
199 199 229
199 199 229
199 199 229
199 199 229
199 199 229
200 200 229
199 199 229
200 200 229
200 200 229
199 199 229
200 200 229
199 199 229
200 200 229
200 200 229
200 200 229
200 200 229
200 200 229
201 201 230
200 200 230
200 200 229
200 200 230
200 200 229
200 200 230
200 200 230
200 200 229
200 200 229
200 200 229
200 200 229
200 200 229
200 200 229
200 200 229
200 200 229
200 200 229
200 200 229
200 200 229
200 200 229
200 200 229
199 199 229
200 200 229
199 199 229
200 200 229
200 200 229
200 200 229
200 200 229
199 199 229
199 199 229
199 199 229
199 199 229
199 199 229
200 200 229
200 200 229
199 199 229
200 200 229
200 200 229
200 200 229
200 200 229
199 199 229
200 200 229
200 200 229
200 200 229
200 200 229
200 200 229
200 200 229
200 200 229
200 200 229
200 200 229
200 200 229
200 200 229
200 200 229
200 200 229
200 200 229
200 200 229
200 200 229
200 200 229
200 200 229
200 200 230
200 200 229
200 200 229
200 200 230
200 200 229
200 200 230
201 201 230
201 201 230
201 201 230
201 201 230
201 201 230
200 200 230
200 200 230
201 201 230
200 200 230
200 200 230
200 200 230
200 200 230
200 200 230
200 200 229
200 200 230
200 200 229
200 200 230
200 200 230
200 200 230
200 200 229
200 200 230
200 200 229
200 200 230
200 200 229
200 200 229
200 200 230
200 200 230
200 200 230
200 200 229
200 200 230
200 200 229
200 200 229
200 200 229
200 200 230
200 200 229
200 200 229
200 200 229
200 200 229
200 200 230
200 200 229
200 200 229
200 200 229
200 200 229
200 200 230
200 200 229
200 200 230
200 200 229
200 200 229
200 200 229
200 200 230
200 200 230
200 200 230
200 200 230
200 200 230
201 201 230
201 201 230
201 201 230
200 200 230
201 201 230
201 201 230
201 201 230
201 201 230
201 201 230
201 201 230
201 201 230
201 201 230
201 201 230
201 201 230
201 201 230
201 201 230
201 201 230
201 201 230
201 201 230
201 201 230
201 201 230
201 201 230
201 201 230
201 201 230
201 201 230
201 201 230
201 201 230
201 201 230
201 201 230
201 201 230
201 201 230
201 201 230
201 201 230
201 201 230
201 201 230
200 200 230
201 201 230
201 201 230
200 200 230
200 200 230
200 200 230
201 201 230
200 200 230
201 201 230
200 200 230
201 201 230
200 200 230
201 201 230
201 201 230
200 200 230
201 201 230
201 201 230
200 200 230
201 201 230
201 201 230
201 201 230
201 201 230
201 201 230
201 201 230
201 201 230
201 201 230
201 201 230
201 201 230
201 201 230
201 201 230
201 201 230
201 201 230
201 201 230
201 201 230
201 201 230
201 201 230
201 201 230
201 201 230
201 201 230
202 202 230
202 202 230
202 202 230
202 202 230
202 202 230
201 201 230
201 201 230
202 202 230
201 201 230
202 202 230
201 201 230
201 201 230
201 201 230
201 201 230
201 201 230
201 201 230
201 201 230
201 201 230
201 201 230
201 201 230
201 201 230
201 201 230
201 201 230
201 201 230
201 201 230
201 201 230
201 201 230
201 201 230
201 201 230
201 201 230
201 201 230
201 201 230
201 201 230
201 201 230
201 201 230
201 201 230
201 201 230
201 201 230
201 201 230
201 201 230
201 201 230
201 201 230
201 201 230
201 201 230
201 201 230
201 201 230
201 201 230
201 201 230
201 201 230
201 201 230
201 201 230
201 201 230
201 201 230
202 202 230
201 201 230
201 201 230
201 201 230
201 201 230
202 202 230
201 201 230
202 202 230
202 202 230
202 202 230
202 202 230
202 202 230
202 202 230
202 202 230
202 202 230
202 202 230
202 202 230
202 202 230
202 202 230
202 202 230
202 202 230
202 202 230
202 202 230
202 202 230
202 202 230
202 202 230
202 202 230
202 202 230
202 202 230
202 202 230
201 201 230
202 202 230
201 201 230
201 201 230
202 202 230
202 202 230
202 202 230
201 201 230
201 201 230
201 201 230
201 201 230
202 202 230
201 201 230
201 201 230
202 202 230
202 202 230
202 202 230
201 201 230
202 202 230
202 202 230
201 201 230
201 201 230
201 201 230
201 201 230
201 201 230
202 202 230
202 202 230
202 202 230
202 202 230
202 202 230
202 202 230
202 202 230
202 202 230
202 202 230
202 202 230
202 202 230
202 202 230
202 202 230
202 202 230
202 202 230
202 202 230
202 202 230
202 202 230
202 202 230
202 202 230
203 203 231
202 202 230
203 203 231
202 202 230
202 202 230
203 203 231
202 202 230
202 202 230
202 202 230
202 202 230
202 202 231
202 202 230
202 202 230
202 202 230
202 202 230
202 202 230
202 202 230
202 202 230
202 202 230
202 202 230
202 202 230
202 202 230
202 202 230
202 202 230
202 202 230
202 202 230
202 202 230
202 202 230
202 202 230
202 202 230
202 202 230
202 202 230
202 202 230
202 202 230
202 202 230
202 202 230
202 202 230
202 202 230
202 202 230
202 202 230
202 202 230
202 202 230
202 202 230
202 202 230
202 202 230
202 202 230
202 202 230
202 202 230
202 202 230
202 202 230
202 202 230
202 202 230
202 202 230
202 202 230
202 202 230
202 202 230
203 203 231
202 202 230
202 202 230
203 203 231
203 203 231
202 202 230
203 203 231
203 203 231
203 203 231
203 203 231
203 203 231
203 203 231
203 203 231
203 203 231
203 203 231
203 203 231
203 203 231
203 203 231
203 203 231
203 203 231
203 203 231
203 203 231
203 203 231
203 203 231
203 203 231
203 203 231
203 203 231
203 203 231
202 202 230
202 202 230
202 202 230
203 203 231
203 203 231
203 203 231
203 203 231
203 203 231
202 202 230
202 202 230
202 202 230
203 203 231
203 203 231
202 202 230
203 203 231
202 202 230
202 202 230
203 203 231
203 203 231
202 202 230
203 203 231
202 202 230
202 202 231
202 202 230
203 203 231
203 203 231
203 203 231
203 203 231
202 202 230
203 203 231
203 203 231
203 203 231
203 203 231
203 203 231
203 203 231
203 203 231
203 203 231
203 203 231
203 203 231
203 203 231
203 203 231
203 203 231
203 203 231
203 203 231
204 204 231
204 204 231
203 203 231
204 204 231
203 203 231
203 203 231
203 203 231
203 203 231
204 204 231
203 203 231
203 203 231
203 203 231
203 203 231
203 203 231
203 203 231
203 203 231
203 203 231
203 203 231
203 203 231
203 203 231
203 203 231
203 203 231
203 203 231
203 203 231
203 203 231
203 203 231
203 203 231
203 203 231
203 203 231
203 203 231
203 203 231
203 203 231
203 203 231
203 203 231
203 203 231
203 203 231
203 203 231
203 203 231
203 203 231
203 203 231
203 203 231
203 203 231
203 203 231
203 203 231
203 203 231
203 203 231
203 203 231
203 203 231
203 203 231
203 203 231
203 203 231
203 203 231
203 203 231
203 203 231
203 203 231
203 203 231
203 203 231
203 203 231
203 203 231
204 204 231
203 203 231
203 203 231
204 204 231
204 204 231
204 204 231
204 204 231
204 204 231
204 204 231
204 204 231
204 204 231
204 204 231
204 204 231
204 204 231
204 204 231
204 204 231
204 204 231
204 204 231
204 204 231
204 204 231
204 204 231
203 203 231
204 204 231
204 204 231
204 204 231
204 204 231
203 203 231
204 204 231
204 204 231
204 204 231
204 204 231
203 203 231
204 204 231
204 204 231
203 203 231
204 204 231
204 204 231
203 203 231
203 203 231
204 204 231
204 204 231
204 204 231
203 203 231
203 203 231
204 204 231
204 204 231
203 203 231
203 203 231
204 204 231
203 203 231
204 204 231
204 204 231
204 204 231
203 203 231
204 204 231
204 204 231
204 204 231
204 204 231
204 204 231
204 204 231
204 204 231
204 204 231
204 204 231
204 204 231
204 204 231
204 204 231
204 204 231
204 204 231
204 204 231
205 205 231
204 204 231
204 204 231
204 204 231
204 204 231
204 204 231
205 205 231
204 204 231
204 204 231
204 204 231
204 204 231
204 204 231
204 204 231
204 204 231
204 204 231
204 204 231
204 204 231
204 204 231
204 204 231
204 204 231
204 204 231
204 204 231
204 204 231
204 204 231
204 204 231
204 204 231
204 204 231
204 204 231
204 204 231
204 204 231
204 204 231
204 204 231
204 204 231
204 204 231
204 204 231
204 204 231
204 204 231
204 204 231
204 204 231
204 204 231
204 204 231
204 204 231
204 204 231
204 204 231
204 204 231
204 204 231
204 204 231
204 204 231
204 204 231
204 204 231
204 204 231
204 204 231
204 204 231
204 204 231
204 204 231
204 204 231
204 204 231
204 204 231
204 204 231
205 205 231
204 204 231
205 205 231
204 204 231
204 204 231
205 205 232
205 205 232
205 205 232
205 205 232
205 205 232
205 205 232
205 205 231
205 205 231
205 205 231
205 205 232
205 205 231
205 205 232
205 205 231
205 205 231
204 204 231
205 205 231
204 204 231
205 205 231
204 204 231
205 205 232
205 205 232
205 205 231
204 204 231
204 204 231
204 204 231
205 205 231
205 205 231
204 204 231
204 204 231
205 205 231
204 204 231
204 204 231
204 204 231
204 204 231
205 205 231
205 205 231
205 205 231
205 205 231
204 204 231
205 205 232
204 204 231
205 205 232
205 205 231
205 205 231
205 205 232
205 205 231
205 205 231
205 205 232
205 205 232
205 205 232
205 205 232
205 205 231
205 205 231
205 205 231
205 205 231
205 205 231
205 205 232
205 205 232
205 205 232
205 205 232
205 205 232
205 205 232
205 205 232
205 205 232
206 206 232
206 206 232
206 206 232
205 205 232
205 205 232
206 206 232
205 205 232
205 205 232
205 205 232
205 205 232
205 205 232
205 205 232
205 205 232
205 205 232
205 205 232
205 205 232
205 205 232
205 205 232
205 205 232
205 205 232
205 205 232
205 205 232
205 205 232
205 205 232
205 205 232
205 205 232
205 205 232
205 205 232
205 205 232
205 205 232
205 205 232
205 205 232
205 205 232
205 205 232
205 205 232
205 205 232
205 205 232
205 205 232
205 205 232
205 205 232
205 205 232
205 205 232
205 205 232
205 205 232
205 205 232
205 205 232
205 205 232
205 205 232
205 205 232
205 205 232
205 205 232
205 205 232
205 205 232
205 205 232
205 205 232
205 205 232
205 205 232
205 205 232
205 205 232
206 206 232
206 206 232
206 206 232
205 205 232
206 206 232
206 206 232
206 206 232
206 206 232
206 206 232
206 206 232
206 206 232
206 206 232
206 206 232
206 206 232
206 206 232
206 206 232
206 206 232
206 206 232
206 206 232
206 206 232
206 206 232
206 206 232
206 206 232
206 206 232
206 206 232
205 205 232
206 206 232
206 206 232
206 206 232
205 205 232
206 206 232
205 205 232
206 206 232
206 206 232
206 206 232
205 205 232
206 206 232
206 206 232
206 206 232
206 206 232
205 205 232
205 205 232
205 205 232
206 206 232
206 206 232
206 206 232
205 205 232
206 206 232
206 206 232
206 206 232
206 206 232
206 206 232
206 206 232
206 206 232
206 206 232
206 206 232
206 206 232
206 206 232
206 206 232
206 206 232
206 206 232
206 206 232
206 206 232
206 206 232
206 206 232
206 206 232
206 206 232
206 206 232
206 206 232
207 207 232
207 207 232
207 207 232
207 207 232
206 206 232
207 207 232
206 206 232
207 207 232
206 206 232
206 206 232
206 206 232
206 206 232
206 206 232
206 206 232
206 206 232
206 206 232
206 206 232
206 206 232
206 206 232
206 206 232
206 206 232
206 206 232
206 206 232
206 206 232
206 206 232
206 206 232
206 206 232
206 206 232
206 206 232
206 206 232
206 206 232
206 206 232
206 206 232
206 206 232
206 206 232
206 206 232
206 206 232
206 206 232
206 206 232
206 206 232
206 206 232
206 206 232
206 206 232
206 206 232
206 206 232
206 206 232
206 206 232
206 206 232
206 206 232
206 206 232
206 206 232
206 206 232
206 206 232
206 206 232
207 207 232
207 207 232
206 206 232
206 206 232
206 206 232
206 206 232
207 207 232
207 207 232
207 207 232
207 207 232
207 207 233
207 207 232
207 207 232
207 207 233
207 207 232
207 207 232
207 207 233
207 207 232
207 207 232
207 207 232
207 207 232
207 207 233
207 207 232
207 207 232
207 207 232
207 207 232
207 207 232
207 207 232
207 207 232
207 207 232
207 207 232
206 206 232
207 207 232
206 206 232
206 206 232
206 206 232
207 207 232
207 207 232
206 206 232
206 206 232
207 207 232
207 207 232
207 207 232
207 207 232
207 207 232
207 207 232
207 207 232
207 207 232
207 207 232
207 207 232
207 207 232
207 207 232
207 207 232
207 207 232
207 207 232
207 207 232
207 207 232
206 206 232
207 207 232
207 207 232
207 207 232
207 207 232
207 207 232
207 207 232
207 207 232
207 207 232
207 207 233
207 207 232
207 207 233
207 207 232
207 207 232
207 207 233
207 207 232
207 207 232
207 207 233
208 208 233
208 208 233
207 207 233
207 207 233
208 208 233
207 207 233
207 207 233
207 207 233
207 207 233
207 207 233
207 207 233
207 207 233
207 207 233
207 207 233
207 207 233
207 207 233
207 207 233
207 207 232
207 207 233
207 207 233
207 207 233
207 207 233
207 207 232
207 207 233
207 207 232
207 207 233
207 207 232
207 207 233
207 207 232
207 207 233
207 207 233
207 207 232
207 207 232
207 207 233
207 207 233
207 207 233
207 207 233
207 207 233
207 207 233
207 207 233
207 207 233
207 207 233
207 207 233
207 207 233
207 207 233
207 207 233
207 207 233
207 207 233
207 207 233
207 207 233
207 207 233
208 208 233
207 207 233
207 207 233
207 207 233
207 207 233
207 207 233
207 207 233
208 208 233
208 208 233
208 208 233
207 207 233
208 208 233
208 208 233
208 208 233
208 208 233
208 208 233
208 208 233
208 208 233
208 208 233
208 208 233
208 208 233
208 208 233
208 208 233
208 208 233
208 208 233
208 208 233
208 208 233
208 208 233
208 208 233
208 208 233
207 207 233
208 208 233
208 208 233
208 208 233
207 207 233
208 208 233
207 207 233
208 208 233
208 208 233
207 207 233
207 207 233
208 208 233
208 208 233
208 208 233
207 207 233
208 208 233
208 208 233
208 208 233
208 208 233
208 208 233
208 208 233
208 208 233
208 208 233
208 208 233
208 208 233
207 207 233
208 208 233
208 208 233
208 208 233
208 208 233
208 208 233
208 208 233
208 208 233
208 208 233
208 208 233
208 208 233
208 208 233
208 208 233
208 208 233
208 208 233
208 208 233
208 208 233
208 208 233
208 208 233
208 208 233
208 208 233
209 209 233
209 209 233
209 209 233
208 208 233
208 208 233
209 209 233
209 209 233
209 209 233
208 208 233
209 209 233
209 209 233
208 208 233
208 208 233
208 208 233
208 208 233
208 208 233
208 208 233
208 208 233
208 208 233
208 208 233
208 208 233
208 208 233
208 208 233
208 208 233
208 208 233
208 208 233
208 208 233
208 208 233
208 208 233
208 208 233
208 208 233
208 208 233
208 208 233
208 208 233
208 208 233
208 208 233
208 208 233
208 208 233
208 208 233
208 208 233
208 208 233
208 208 233
208 208 233
208 208 233
208 208 233
208 208 233
208 208 233
208 208 233
208 208 233
208 208 233
208 208 233
208 208 233
208 208 233
208 208 233
208 208 233
208 208 233
208 208 233
209 209 233
208 208 233
209 209 233
208 208 233
209 209 233
208 208 233
208 208 233
209 209 233
209 209 233
209 209 233
209 209 233
209 209 233
209 209 233
209 209 233
209 209 233
209 209 233
209 209 233
209 209 233
209 209 233
209 209 233
209 209 233
209 209 233
209 209 233
209 209 233
209 209 233
208 208 233
209 209 233
208 208 233
209 209 233
209 209 233
209 209 233
209 209 233
209 209 233
209 209 233
209 209 233
209 209 233
209 209 233
209 209 233
209 209 233
209 209 233
209 209 233
209 209 233
209 209 233
209 209 233
208 208 233
208 208 233
209 209 233
209 209 233
209 209 233
209 209 233
209 209 233
209 209 233
209 209 233
209 209 233
209 209 233
209 209 233
209 209 233
209 209 233
209 209 233
209 209 233
209 209 233
209 209 233
209 209 233
209 209 233
209 209 233
209 209 233
209 209 233
209 209 233
209 209 233
209 209 233
209 209 233
209 209 234
210 210 234
209 209 233
209 209 234
210 210 234
209 209 234
209 209 234
209 209 234
209 209 234
210 210 234
210 210 234
209 209 233
210 210 234
209 209 234
209 209 233
209 209 234
209 209 233
209 209 234
209 209 233
210 210 234
209 209 233
209 209 233
209 209 234
209 209 234
209 209 234
209 209 234
209 209 234
209 209 233
209 209 233
209 209 234
209 209 233
209 209 234
209 209 234
209 209 234
209 209 234
209 209 233
209 209 233
209 209 233
209 209 233
209 209 233
209 209 234
209 209 234
209 209 234
209 209 233
209 209 234
210 210 234
209 209 234
209 209 234
209 209 234
209 209 234
209 209 233
209 209 234
209 209 233
209 209 234
209 209 234
209 209 234
209 209 234
209 209 234
209 209 234
209 209 233
209 209 233
209 209 234
209 209 234
209 209 234
210 210 234
210 210 234
210 210 234
210 210 234
210 210 234
210 210 234
210 210 234
210 210 234
210 210 234
210 210 234
210 210 234
210 210 234
210 210 234
210 210 234
210 210 234
210 210 234
210 210 234
210 210 234
210 210 234
210 210 234
210 210 234
210 210 234
210 210 234
210 210 234
210 210 234
210 210 234
210 210 234
210 210 234
210 210 234
210 210 234
210 210 234
210 210 234
210 210 234
210 210 234
210 210 234
210 210 234
210 210 234
210 210 234
210 210 234
210 210 234
210 210 234
210 210 234
210 210 234
210 210 234
210 210 234
210 210 234
210 210 234
210 210 234
210 210 234
210 210 234
210 210 234
210 210 234
210 210 234
210 210 234
210 210 234
210 210 234
210 210 234
210 210 234
210 210 234
210 210 234
210 210 234
210 210 234
210 210 234
210 210 234
210 210 234
210 210 234
210 210 234
210 210 234
210 210 234
210 210 234
210 210 234
211 211 234
210 210 234
210 210 234
211 211 234
210 210 234
211 211 234
211 211 234
210 210 234
210 210 234
211 211 234
211 211 234
210 210 234
210 210 234
210 210 234
210 210 234
210 210 234
210 210 234
210 210 234
210 210 234
210 210 234
210 210 234
210 210 234
210 210 234
210 210 234
211 211 234
210 210 234
210 210 234
211 211 234
210 210 234
210 210 234
210 210 234
210 210 234
210 210 234
210 210 234
210 210 234
210 210 234
210 210 234
210 210 234
210 210 234
210 210 234
210 210 234
210 210 234
210 210 234
211 211 234
210 210 234
210 210 234
210 210 234
210 210 234
210 210 234
210 210 234
210 210 234
210 210 234
210 210 234
211 211 234
210 210 234
211 211 234
210 210 234
211 211 234
211 211 234
211 211 234
211 211 234
211 211 234
211 211 234
211 211 234
211 211 234
211 211 234
211 211 234
211 211 234
211 211 234
211 211 234
211 211 234
211 211 234
211 211 234
211 211 234
211 211 234
211 211 234
211 211 234
211 211 234
211 211 234
211 211 234
211 211 234
211 211 234
211 211 234
211 211 234
211 211 234
211 211 234
211 211 234
211 211 234
211 211 234
211 211 234
211 211 234
211 211 234
211 211 234
211 211 234
211 211 234
211 211 234
211 211 234
211 211 234
211 211 234
211 211 234
211 211 234
211 211 234
211 211 234
211 211 234
211 211 234
211 211 234
211 211 234
211 211 234
211 211 234
211 211 234
211 211 234
211 211 234
211 211 234
211 211 234
211 211 234
211 211 234
211 211 234
211 211 234
211 211 234
211 211 234
211 211 234
211 211 234
212 212 235
212 212 235
212 212 235
211 211 234
211 211 234
212 212 235
212 212 235
212 212 235
212 212 235
212 212 235
212 212 235
211 211 234
212 212 235
212 212 235
212 212 235
211 211 234
211 211 234
211 211 234
211 211 235
211 211 235
211 211 234
212 212 235
211 211 234
212 212 235
211 211 234
211 211 235
211 211 235
211 211 234
211 211 234
212 212 235
211 211 234
211 211 234
211 211 234
211 211 234
212 212 235
211 211 234
212 212 235
211 211 234
212 212 235
211 211 234
212 212 235
211 211 234
211 211 234
212 212 235
211 211 234
212 212 235
212 212 235
211 211 234
211 211 234
212 212 235
212 212 235
211 211 234
211 211 235
212 212 235
211 211 234
211 211 234
211 211 235
211 211 234
212 212 235
211 211 234
212 212 235
211 211 234
211 211 234
212 212 235
212 212 235
212 212 235
212 212 235
212 212 235
212 212 235
212 212 235
212 212 235
212 212 235
212 212 235
212 212 235
212 212 235
212 212 235
212 212 235
212 212 235
212 212 235
212 212 235
212 212 235
212 212 235
212 212 235
212 212 235
212 212 235
212 212 235
212 212 235
212 212 235
212 212 235
212 212 235
212 212 235
212 212 235
212 212 235
212 212 235
212 212 235
212 212 235
212 212 235
212 212 235
212 212 235
212 212 235
212 212 235
212 212 235
212 212 235
212 212 235
212 212 235
212 212 235
212 212 235
212 212 235
212 212 235
212 212 235
212 212 235
212 212 235
212 212 235
212 212 235
212 212 235
212 212 235
212 212 235
212 212 235
212 212 235
212 212 235
212 212 235
212 212 235
212 212 235
212 212 235
212 212 235
212 212 235
212 212 235
212 212 235
213 213 235
212 212 235
213 213 235
213 213 235
213 213 235
212 212 235
212 212 235
212 212 235
212 212 235
212 212 235
213 213 235
212 212 235
212 212 235
213 213 235
213 213 235
212 212 235
212 212 235
212 212 235
213 213 235
212 212 235
212 212 235
212 212 235
212 212 235
212 212 235
212 212 235
212 212 235
212 212 235
212 212 235
213 213 235
212 212 235
212 212 235
212 212 235
212 212 235
213 213 235
213 213 235
213 213 235
212 212 235
212 212 235
212 212 235
212 212 235
212 212 235
213 213 235
213 213 235
213 213 235
212 212 235
212 212 235
212 212 235
212 212 235
212 212 235
212 212 235
213 213 235
212 212 235
212 212 235
213 213 235
212 212 235
213 213 235
212 212 235
213 213 235
213 213 235
212 212 235
212 212 235
212 212 235
212 212 235
213 213 235
213 213 235
213 213 235
213 213 235
213 213 235
213 213 235
213 213 235
213 213 235
213 213 235
213 213 235
213 213 235
213 213 235
213 213 235
213 213 235
213 213 235
213 213 235
213 213 235
213 213 235
213 213 235
213 213 235
213 213 235
213 213 235
213 213 235
213 213 235
213 213 235
213 213 235
213 213 235
213 213 235
213 213 235
213 213 235
213 213 235
213 213 235
213 213 235
213 213 235
213 213 235
213 213 235
213 213 235
213 213 235
213 213 235
213 213 235
213 213 235
213 213 235
213 213 235
213 213 235
213 213 235
213 213 235
213 213 235
213 213 235
213 213 235
213 213 235
213 213 235
213 213 235
213 213 235
213 213 235
213 213 235
213 213 235
213 213 235
213 213 235
213 213 235
213 213 235
213 213 235
213 213 235
213 213 235
213 213 235
213 213 235
214 214 235
213 213 235
214 214 235
213 213 235
214 214 235
214 214 235
213 213 235
213 213 235
213 213 235
213 213 235
213 213 235
214 214 235
214 214 235
214 214 235
213 213 235
213 213 235
213 213 235
214 214 235
213 213 235
213 213 235
213 213 235
213 213 235
213 213 235
214 214 235
213 213 235
214 214 235
214 214 235
213 213 235
213 213 235
213 213 235
214 214 235
214 214 235
214 214 235
214 214 235
214 214 235
213 213 235
213 213 235
214 214 235
213 213 235
214 214 235
213 213 235
214 214 235
214 214 235
213 213 235
213 213 235
213 213 235
214 214 236
213 213 235
214 214 235
214 214 235
214 214 235
213 213 235
213 213 235
213 213 235
213 213 235
213 213 235
214 214 235
213 213 235
214 214 235
213 213 235
213 213 235
213 213 235
213 213 235
214 214 236
214 214 236
214 214 236
214 214 236
214 214 236
214 214 236
214 214 236
214 214 236
214 214 236
214 214 236
214 214 236
214 214 236
214 214 236
214 214 236
214 214 236
214 214 236
214 214 236
214 214 236
214 214 236
214 214 236
214 214 236
214 214 236
214 214 236
214 214 236
214 214 236
214 214 236
214 214 236
214 214 236
214 214 236
214 214 236
214 214 236
214 214 236
214 214 236
214 214 236
214 214 236
214 214 236
214 214 236
214 214 236
214 214 236
214 214 236
214 214 236
214 214 236
214 214 236
214 214 236
214 214 236
214 214 236
214 214 236
214 214 236
214 214 236
214 214 236
214 214 236
214 214 236
214 214 236
214 214 236
214 214 236
214 214 236
214 214 236
214 214 236
214 214 236
214 214 236
214 214 236
214 214 236
214 214 236
214 214 236
214 214 236
214 214 236
215 215 236
214 214 236
214 214 236
215 215 236
215 215 236
214 214 236
214 214 236
214 214 236
215 215 236
215 215 236
214 214 236
214 214 236
214 214 236
214 214 236
214 214 236
214 214 236
214 214 236
215 215 236
214 214 236
215 215 236
214 214 236
214 214 236
214 214 236
214 214 236
214 214 236
215 215 236
214 214 236
215 215 236
214 214 236
215 215 236
214 214 236
214 214 236
215 215 236
214 214 236
214 214 236
214 214 236
214 214 236
214 214 236
214 214 236
214 214 236
214 214 236
215 215 236
215 215 236
215 215 236
214 214 236
214 214 236
214 214 236
215 215 236
214 214 236
215 215 236
215 215 236
215 215 236
215 215 236
214 214 236
215 215 236
214 214 236
214 214 236
214 214 236
214 214 236
214 214 236
214 214 236
215 215 236
215 215 236
215 215 236
215 215 236
215 215 236
215 215 236
215 215 236
215 215 236
215 215 236
215 215 236
215 215 236
215 215 236
215 215 236
215 215 236
215 215 236
215 215 236
215 215 236
215 215 236
215 215 236
215 215 236
215 215 236
215 215 236
215 215 236
215 215 236
215 215 236
215 215 236
215 215 236
215 215 236
215 215 236
215 215 236
215 215 236
215 215 236
215 215 236
215 215 236
215 215 236
215 215 236
215 215 236
215 215 236
215 215 236
215 215 236
215 215 236
215 215 236
215 215 236
215 215 236
215 215 236
215 215 236
215 215 236
215 215 236
215 215 236
215 215 236
215 215 236
215 215 236
215 215 236
215 215 236
215 215 236
215 215 236
215 215 236
215 215 236
215 215 236
215 215 236
215 215 236
215 215 236
215 215 236
215 215 236
215 215 236
215 215 236
215 215 236
215 215 236
215 215 236
215 215 236
215 215 236
215 215 236
215 215 236
216 216 236
216 216 236
216 216 236
216 216 236
215 215 236
215 215 236
215 215 236
215 215 236
215 215 236
216 216 236
216 216 236
215 215 236
216 216 236
216 216 236
216 216 236
216 216 236
216 216 236
215 215 236
216 216 236
216 216 236
216 216 236
215 215 236
215 215 236
216 216 236
215 215 236
215 215 236
215 215 236
216 216 236
215 215 236
216 216 236
215 215 236
216 216 236
216 216 236
215 215 236
216 216 236
216 216 236
216 216 236
215 215 236
215 215 236
216 216 236
215 215 236
215 215 236
216 216 236
215 215 236
215 215 236
216 216 236
215 215 236
215 215 236
215 215 236
215 215 236
215 215 236
216 216 236
215 215 236
216 216 236
215 215 236
215 215 236
216 216 237
216 216 236
216 216 236
216 216 236
216 216 237
216 216 237
216 216 237
216 216 236
216 216 236
216 216 237
216 216 237
216 216 237
216 216 237
216 216 237
216 216 237
216 216 237
216 216 237
216 216 237
216 216 237
216 216 237
216 216 237
216 216 237
216 216 237
216 216 237
216 216 236
216 216 236
216 216 237
216 216 237
216 216 237
216 216 236
216 216 237
216 216 237
216 216 237
216 216 237
216 216 237
216 216 237
216 216 237
216 216 237
216 216 237
216 216 237
216 216 237
216 216 237
216 216 237
216 216 237
216 216 237
216 216 237
216 216 237
216 216 236
216 216 237
216 216 236
216 216 236
216 216 237
216 216 237
216 216 237
216 216 237
216 216 237
216 216 237
216 216 237
216 216 236
216 216 236
216 216 237
216 216 237
216 216 236
216 216 236
216 216 237
217 217 237
216 216 237
216 216 237
216 216 237
216 216 237
216 216 237
217 217 237
217 217 237
217 217 237
217 217 237
217 217 237
216 216 237
217 217 237
216 216 237
216 216 237
217 217 237
216 216 237
217 217 237
217 217 237
216 216 237
216 216 237
216 216 237
216 216 237
217 217 237
216 216 237
217 217 237
217 217 237
217 217 237
217 217 237
217 217 237
216 216 237
217 217 237
217 217 237
216 216 237
216 216 237
217 217 237
216 216 237
217 217 237
216 216 237
216 216 237
217 217 237
217 217 237
216 216 237
217 217 237
217 217 237
216 216 237
216 216 237
216 216 237
216 216 237
216 216 237
217 217 237
216 216 237
217 217 237
216 216 237
216 216 237
217 217 237
216 216 237
216 216 237
216 216 237
216 216 237
216 216 237
216 216 237
216 216 237
217 217 237
217 217 237
217 217 237
217 217 237
217 217 237
217 217 237
217 217 237
217 217 237
217 217 237
217 217 237
217 217 237
217 217 237
217 217 237
217 217 237
217 217 237
217 217 237
217 217 237
217 217 237
217 217 237
217 217 237
217 217 237
217 217 237
217 217 237
217 217 237
217 217 237
217 217 237
217 217 237
217 217 237
217 217 237
217 217 237
217 217 237
217 217 237
217 217 237
217 217 237
217 217 237
217 217 237
217 217 237
217 217 237
217 217 237
217 217 237
217 217 237
217 217 237
217 217 237
217 217 237
217 217 237
217 217 237
217 217 237
217 217 237
217 217 237
217 217 237
217 217 237
217 217 237
217 217 237
217 217 237
217 217 237
217 217 237
217 217 237
217 217 237
217 217 237
217 217 237
217 217 237
217 217 237
217 217 237
217 217 237
217 217 237
217 217 237
217 217 237
217 217 237
217 217 237
217 217 237
217 217 237
217 217 237
218 218 237
217 217 237
218 218 237
217 217 237
218 218 237
218 218 237
218 218 237
218 218 237
217 217 237
218 218 237
217 217 237
217 217 237
218 218 237
217 217 237
218 218 237
218 218 237
218 218 237
218 218 237
218 218 237
218 218 237
217 217 237
218 218 237
218 218 237
217 217 237
218 218 237
218 218 237
217 217 237
217 217 237
218 218 237
217 217 237
217 217 237
217 217 237
217 217 237
217 217 237
218 218 237
218 218 237
217 217 237
217 217 237
217 217 237
218 218 237
218 218 237
217 217 237
218 218 237
217 217 237
218 218 237
217 217 237
217 217 237
218 218 237
218 218 237
217 217 237
217 217 237
218 218 237
217 217 237
217 217 237
217 217 237
217 217 237
218 218 237
218 218 237
218 218 237
218 218 238
218 218 237
218 218 237
218 218 237
218 218 237
218 218 237
218 218 237
218 218 237
218 218 238
218 218 238
218 218 238
218 218 237
218 218 237
218 218 238
218 218 237
218 218 238
218 218 237
218 218 237
218 218 238
218 218 237
218 218 238
218 218 238
218 218 237
218 218 238
218 218 238
218 218 237
218 218 238
218 218 238
218 218 237
218 218 238
218 218 238
218 218 237
218 218 237
218 218 238
218 218 238
218 218 238
218 218 238
218 218 237
218 218 238
218 218 237
218 218 238
218 218 237
218 218 238
218 218 238
218 218 238
218 218 238
218 218 237
218 218 237
218 218 237
218 218 237
218 218 237
218 218 237
218 218 237
218 218 237
218 218 237
218 218 237
218 218 238
218 218 237
218 218 237
218 218 237
218 218 237
218 218 238
218 218 238
218 218 238
218 218 238
218 218 238
218 218 238
219 219 238
219 219 238
218 218 238
219 219 238
218 218 238
218 218 238
219 219 238
219 219 238
218 218 238
219 219 238
219 219 238
218 218 238
219 219 238
218 218 238
218 218 238
219 219 238
218 218 238
219 219 238
219 219 238
218 218 238
219 219 238
219 219 238
219 219 238
219 219 238
219 219 238
218 218 238
219 219 238
218 218 238
218 218 238
218 218 238
219 219 238
219 219 238
219 219 238
218 218 238
219 219 238
219 219 238
218 218 238
218 218 238
218 218 238
218 218 238
218 218 238
219 219 238
218 218 238
218 218 238
218 218 238
218 218 238
218 218 238
218 218 238
218 218 238
219 219 238
218 218 238
219 219 238
218 218 238
218 218 238
218 218 238
218 218 238
218 218 238
218 218 238
219 219 238
219 219 238
219 219 238
219 219 238
219 219 238
219 219 238
219 219 238
219 219 238
219 219 238
219 219 238
219 219 238
219 219 238
219 219 238
219 219 238
219 219 238
219 219 238
219 219 238
219 219 238
219 219 238
219 219 238
219 219 238
219 219 238
219 219 238
219 219 238
219 219 238
219 219 238
219 219 238
219 219 238
219 219 238
219 219 238
219 219 238
219 219 238
219 219 238
219 219 238
219 219 238
219 219 238
219 219 238
219 219 238
219 219 238
219 219 238
219 219 238
219 219 238
219 219 238
219 219 238
219 219 238
219 219 238
219 219 238
219 219 238
219 219 238
219 219 238
219 219 238
219 219 238
219 219 238
219 219 238
219 219 238
219 219 238
219 219 238
219 219 238
219 219 238
219 219 238
219 219 238
219 219 238
219 219 238
219 219 238
219 219 238
219 219 238
219 219 238
219 219 238
219 219 238
219 219 238
219 219 238
219 219 238
220 220 238
219 219 238
219 219 238
219 219 238
219 219 238
220 220 238
219 219 238
219 219 238
220 220 238
219 219 238
219 219 238
220 220 238
219 219 238
220 220 238
220 220 238
219 219 238
220 220 238
219 219 238
220 220 238
219 219 238
219 219 238
220 220 238
220 220 238
220 220 238
220 220 238
220 220 238
219 219 238
220 220 238
220 220 238
220 220 238
220 220 238
220 220 238
220 220 238
220 220 238
220 220 238
219 219 238
219 219 238
220 220 238
220 220 238
219 219 238
219 219 238
220 220 238
220 220 238
219 219 238
219 219 238
220 220 238
220 220 238
220 220 238
219 219 238
219 219 238
219 219 238
219 219 238
219 219 238
219 219 238
219 219 238
219 219 238
220 220 238
220 220 238
220 220 238
220 220 238
220 220 238
220 220 238
220 220 238
220 220 238
220 220 238
220 220 238
220 220 238
220 220 238
220 220 238
220 220 238
220 220 238
220 220 238
220 220 238
220 220 238
220 220 238
220 220 238
220 220 238
220 220 238
220 220 238
220 220 238
220 220 238
220 220 238
220 220 238
220 220 238
220 220 238
220 220 238
220 220 238
220 220 238
220 220 238
220 220 238
220 220 238
220 220 238
220 220 239
220 220 238
220 220 238
220 220 238
220 220 238
220 220 238
220 220 238
220 220 238
220 220 238
220 220 238
220 220 238
220 220 238
220 220 238
220 220 238
220 220 238
220 220 238
220 220 238
220 220 238
220 220 238
220 220 238
220 220 238
220 220 238
220 220 238
220 220 238
220 220 238
220 220 238
220 220 238
220 220 238
220 220 238
220 220 239
220 220 238
220 220 239
220 220 238
220 220 239
220 220 239
220 220 239
221 221 239
220 220 239
221 221 239
220 220 239
220 220 239
220 220 239
221 221 239
220 220 239
221 221 239
220 220 239
220 220 239
221 221 239
221 221 239
220 220 239
221 221 239
221 221 239
221 221 239
221 221 239
221 221 239
221 221 239
220 220 239
221 221 239
220 220 239
220 220 239
221 221 239
221 221 239
221 221 239
221 221 239
221 221 239
220 220 239
220 220 239
220 220 239
221 221 239
221 221 239
220 220 239
221 221 239
221 221 239
220 220 239
220 220 239
221 221 239
221 221 239
220 220 239
220 220 239
221 221 239
221 221 239
220 220 239
220 220 239
221 221 239
220 220 239
220 220 238
220 220 239
220 220 239
220 220 238
220 220 238
220 220 239
220 220 238
221 221 239
220 220 239
221 221 239
221 221 239
220 220 239
221 221 239
221 221 239
221 221 239
221 221 239
221 221 239
221 221 239
221 221 239
221 221 239
221 221 239
221 221 239
221 221 239
221 221 239
221 221 239
221 221 239
221 221 239
221 221 239
221 221 239
221 221 239
221 221 239
221 221 239
221 221 239
221 221 239
221 221 239
221 221 239
221 221 239
221 221 239
221 221 239
221 221 239
221 221 239
221 221 239
221 221 239
221 221 239
221 221 239
221 221 239
221 221 239
221 221 239
221 221 239
221 221 239
221 221 239
221 221 239
221 221 239
221 221 239
221 221 239
221 221 239
221 221 239
221 221 239
221 221 239
221 221 239
221 221 239
221 221 239
221 221 239
221 221 239
221 221 239
221 221 239
221 221 239
220 220 239
221 221 239
221 221 239
221 221 239
221 221 239
221 221 239
221 221 239
221 221 239
221 221 239
221 221 239
221 221 239
221 221 239
221 221 239
221 221 239
221 221 239
221 221 239
221 221 239
221 221 239
221 221 239
221 221 239
221 221 239
221 221 239
221 221 239
222 222 239
222 222 239
221 221 239
221 221 239
221 221 239
222 222 239
222 222 239
222 222 239
221 221 239
221 221 239
221 221 239
222 222 239
222 222 239
221 221 239
222 222 239
222 222 239
222 222 239
221 221 239
221 221 239
221 221 239
221 221 239
221 221 239
221 221 239
221 221 239
222 222 239
221 221 239
221 221 239
222 222 239
222 222 239
221 221 239
221 221 239
221 221 239
221 221 239
221 221 239
221 221 239
221 221 239
221 221 239
221 221 239
221 221 239
221 221 239
221 221 239
221 221 239
221 221 239
221 221 239
221 221 239
222 222 239
221 221 239
222 222 239
222 222 239
222 222 239
222 222 239
222 222 239
222 222 239
222 222 239
222 222 239
222 222 239
222 222 239
222 222 239
222 222 239
222 222 239
222 222 239
222 222 239
222 222 239
222 222 239
222 222 239
222 222 239
222 222 239
222 222 239
222 222 239
222 222 239
222 222 239
222 222 239
222 222 239
222 222 239
222 222 239
222 222 239
222 222 239
222 222 239
222 222 239
222 222 239
222 222 239
222 222 239
222 222 239
222 222 239
222 222 239
222 222 239
222 222 239
222 222 239
222 222 239
222 222 239
222 222 239
222 222 239
222 222 239
222 222 239
222 222 239
222 222 239
222 222 239
222 222 239
222 222 239
222 222 239
222 222 239
222 222 239
222 222 239
222 222 239
222 222 239
222 222 239
222 222 239
221 221 239
221 221 239
222 222 239
222 222 239
222 222 239
222 222 239
222 222 239
222 222 239
222 222 239
222 222 239
222 222 239
222 222 239
222 222 240
222 222 239
222 222 239
222 222 239
222 222 239
222 222 239
223 223 240
223 223 240
223 223 240
223 223 240
222 222 239
222 222 239
222 222 240
222 222 240
222 222 240
223 223 240
223 223 240
222 222 239
223 223 240
222 222 239
222 222 240
223 223 240
223 223 240
223 223 240
222 222 239
223 223 240
222 222 239
223 223 240
222 222 239
223 223 240
222 222 239
223 223 240
222 222 239
222 222 239
222 222 240
222 222 239
222 222 240
222 222 239
222 222 239
222 222 239
222 222 240
222 222 239
222 222 239
222 222 240
222 222 239
222 222 239
222 222 239
222 222 239
222 222 239
222 222 239
222 222 239
222 222 239
222 222 239
222 222 239
222 222 240
223 223 240
222 222 240
223 223 240
223 223 240
223 223 240
222 222 240
223 223 240
223 223 240
223 223 240
223 223 240
223 223 240
223 223 240
223 223 240
223 223 240
223 223 240
223 223 240
223 223 240
223 223 240
223 223 240
223 223 240
223 223 240
223 223 240
223 223 240
223 223 240
223 223 240
223 223 240
223 223 240
223 223 240
223 223 240
223 223 240
223 223 240
223 223 240
223 223 240
223 223 240
223 223 240
223 223 240
223 223 240
223 223 240
223 223 240
223 223 240
223 223 240
223 223 240
223 223 240
223 223 240
223 223 240
223 223 240
223 223 240
223 223 240
223 223 240
223 223 240
223 223 240
223 223 240
223 223 240
223 223 240
222 222 240
222 222 240
223 223 240
222 222 239
223 223 240
222 222 239
222 222 239
223 223 240
222 222 239
223 223 240
223 223 240
223 223 240
223 223 240
223 223 240
223 223 240
223 223 240
223 223 240
223 223 240
223 223 240
223 223 240
223 223 240
223 223 240
223 223 240
223 223 240
223 223 240
223 223 240
223 223 240
223 223 240
223 223 240
223 223 240
223 223 240
224 224 240
223 223 240
223 223 240
223 223 240
224 224 240
224 224 240
224 224 240
223 223 240
224 224 240
224 224 240
223 223 240
223 223 240
223 223 240
223 223 240
223 223 240
223 223 240
223 223 240
223 223 240
223 223 240
223 223 240
223 223 240
223 223 240
223 223 240
223 223 240
223 223 240
223 223 240
223 223 240
223 223 240
223 223 240
223 223 240
223 223 240
223 223 240
223 223 240
223 223 240
223 223 240
223 223 240
223 223 240
223 223 240
223 223 240
223 223 240
223 223 240
223 223 240
223 223 240
223 223 240
224 224 240
223 223 240
223 223 240
224 224 240
223 223 240
223 223 240
224 224 240
224 224 240
223 223 240
224 224 240
224 224 240
224 224 240
224 224 240
224 224 240
224 224 240
224 224 240
224 224 240
224 224 240
224 224 240
224 224 240
224 224 240
224 224 240
224 224 240
224 224 240
224 224 240
224 224 240
224 224 240
224 224 240
224 224 240
224 224 240
224 224 240
224 224 240
224 224 240
224 224 240
224 224 240
224 224 240
224 224 240
224 224 240
224 224 240
224 224 240
224 224 240
224 224 240
224 224 240
224 224 240
224 224 240
223 223 240
224 224 240
224 224 240
224 224 240
224 224 240
224 224 240
223 223 240
224 224 240
224 224 240
224 224 240
223 223 240
224 224 240
223 223 240
224 224 240
223 223 240
223 223 240
223 223 240
224 224 240
224 224 240
224 224 240
224 224 240
224 224 240
224 224 240
224 224 240
224 224 240
224 224 240
224 224 240
224 224 240
224 224 240
224 224 240
224 224 240
224 224 240
224 224 240
224 224 240
224 224 240
224 224 240
224 224 240
224 224 240
224 224 240
224 224 240
224 224 240
224 224 240
224 224 240
224 224 240
224 224 240
224 224 240
224 224 240
224 224 240
224 224 240
224 224 240
224 224 240
224 224 240
224 224 240
224 224 240
224 224 240
224 224 240
224 224 240
224 224 240
224 224 240
224 224 240
224 224 240
224 224 240
224 224 240
224 224 240
224 224 240
224 224 240
224 224 240
224 224 240
224 224 240
224 224 240
224 224 240
224 224 240
224 224 240
224 224 240
224 224 240
224 224 240
224 224 240
224 224 240
224 224 240
224 224 240
224 224 240
224 224 240
224 224 240
224 224 240
224 224 240
224 224 240
224 224 240
225 225 241
224 224 240
225 225 241
224 224 240
224 224 240
224 224 240
224 224 240
224 224 240
224 224 240
225 225 241
225 225 241
225 225 241
225 225 241
225 225 241
225 225 241
225 225 241
225 225 241
225 225 241
225 225 241
225 225 241
225 225 241
225 225 241
225 225 241
225 225 241
225 225 241
225 225 241
225 225 241
225 225 241
225 225 241
225 225 241
225 225 241
225 225 241
225 225 241
225 225 241
225 225 241
225 225 241
225 225 241
225 225 241
225 225 241
225 225 241
225 225 241
225 225 241
225 225 241
225 225 241
225 225 241
225 225 241
224 224 240
225 225 241
224 224 240
225 225 240
224 224 240
225 225 240
224 224 240
224 224 240
224 224 240
224 224 240
224 224 240
224 224 240
225 225 241
225 225 241
225 225 241
225 225 241
225 225 241
225 225 241
225 225 241
225 225 241
225 225 241
225 225 241
225 225 241
225 225 241
225 225 241
225 225 241
225 225 241
225 225 241
225 225 241
225 225 241
225 225 241
225 225 241
225 225 241
225 225 241
225 225 241
225 225 241
225 225 241
225 225 241
225 225 241
225 225 241
225 225 241
225 225 241
225 225 241
225 225 241
225 225 241
225 225 241
225 225 241
225 225 241
225 225 241
225 225 241
225 225 241
225 225 241
225 225 241
225 225 241
225 225 241
225 225 241
225 225 241
225 225 241
225 225 241
225 225 241
225 225 241
225 225 241
225 225 241
225 225 241
225 225 241
225 225 241
225 225 241
225 225 241
225 225 241
225 225 241
225 225 241
225 225 241
224 224 240
225 225 241
225 225 241
225 225 241
225 225 241
225 225 241
225 225 241
225 225 241
225 225 241
225 225 241
225 225 241
225 225 241
225 225 241
225 225 241
225 225 241
225 225 241
226 226 241
225 225 241
225 225 241
226 226 241
225 225 241
225 225 241
225 225 241
226 226 241
225 225 241
225 225 241
226 226 241
225 225 241
226 226 241
226 226 241
226 226 241
226 226 241
225 225 241
226 226 241
226 226 241
226 226 241
226 226 241
226 226 241
226 226 241
226 226 241
226 226 241
226 226 241
226 226 241
226 226 241
226 226 241
226 226 241
226 226 241
226 226 241
226 226 241
226 226 241
225 225 241
226 226 241
225 225 241
226 226 241
226 226 241
225 225 241
225 225 241
226 226 241
225 225 241
225 225 241
225 225 241
225 225 241
225 225 241
225 225 241
225 225 241
225 225 241
225 225 241
225 225 241
226 226 241
225 225 241
225 225 241
226 226 241
226 226 241
226 226 241
226 226 241
226 226 241
226 226 241
226 226 241
226 226 241
226 226 241
226 226 241
226 226 241
226 226 241
226 226 241
226 226 241
226 226 241
226 226 241
226 226 241
226 226 241
226 226 241
226 226 241
226 226 241
226 226 241
226 226 241
226 226 241
226 226 241
226 226 241
226 226 241
226 226 241
226 226 241
226 226 241
226 226 241
226 226 241
226 226 241
226 226 241
226 226 241
226 226 241
226 226 241
226 226 241
226 226 241
226 226 241
226 226 241
226 226 241
226 226 241
226 226 241
226 226 241
226 226 241
226 226 241
226 226 241
226 226 241
226 226 241
226 226 241
226 226 241
226 226 241
226 226 241
225 225 241
226 226 241
226 226 241
225 225 241
225 225 241
226 226 241
225 225 241
226 226 241
226 226 241
226 226 241
226 226 241
226 226 241
226 226 241
226 226 241
226 226 241
226 226 241
226 226 241
226 226 241
226 226 241
226 226 241
226 226 241
226 226 241
226 226 241
226 226 241
226 226 241
227 227 241
226 226 241
227 227 241
227 227 241
226 226 241
227 227 241
227 227 241
227 227 241
227 227 242
227 227 241
227 227 241
226 226 241
227 227 242
227 227 241
226 226 241
226 226 241
226 226 241
227 227 241
226 226 241
226 226 241
226 226 241
227 227 241
226 226 241
226 226 241
226 226 241
226 226 241
227 227 241
226 226 241
226 226 241
226 226 241
226 226 241
226 226 241
226 226 241
226 226 241
226 226 241
226 226 241
226 226 241
226 226 241
226 226 241
226 226 241
226 226 241
226 226 241
226 226 241
226 226 241
226 226 241
226 226 241
226 226 241
226 226 241
226 226 241
226 226 241
227 227 241
226 226 241
227 227 241
227 227 242
227 227 242
226 226 241
227 227 242
227 227 242
227 227 241
227 227 242
227 227 242
227 227 242
227 227 241
227 227 242
227 227 242
227 227 242
227 227 242
227 227 242
227 227 242
227 227 242
227 227 242
227 227 242
227 227 242
227 227 242
227 227 242
227 227 242
227 227 242
227 227 242
227 227 242
227 227 242
227 227 242
227 227 242
227 227 242
227 227 242
227 227 242
227 227 242
227 227 242
227 227 242
227 227 242
227 227 242
227 227 242
227 227 242
227 227 242
227 227 242
227 227 241
227 227 242
227 227 242
226 226 241
227 227 241
227 227 242
227 227 242
226 226 241
226 226 241
226 226 241
226 226 241
227 227 241
226 226 241
226 226 241
226 226 241
226 226 241
227 227 242
227 227 242
227 227 242
227 227 242
227 227 242
227 227 242
227 227 242
227 227 242
227 227 242
227 227 242
227 227 242
227 227 242
227 227 242
227 227 242
227 227 242
227 227 242
227 227 242
227 227 242
227 227 242
227 227 242
227 227 242
227 227 242
227 227 242
227 227 242
227 227 242
227 227 242
228 228 242
227 227 242
227 227 242
227 227 242
227 227 242
227 227 242
227 227 242
227 227 242
227 227 242
228 228 242
228 228 242
227 227 242
227 227 242
227 227 242
227 227 242
228 228 242
227 227 242
227 227 242
227 227 242
227 227 242
227 227 242
227 227 242
227 227 242
227 227 242
227 227 242
227 227 242
227 227 242
227 227 242
227 227 242
227 227 242
227 227 242
227 227 242
227 227 242
227 227 242
227 227 242
227 227 241
227 227 241
226 226 241
227 227 242
227 227 242
227 227 242
227 227 242
227 227 242
227 227 242
227 227 242
227 227 242
228 228 242
227 227 242
227 227 242
228 228 242
227 227 242
228 228 242
228 228 242
228 228 242
227 227 242
228 228 242
228 228 242
228 228 242
228 228 242
228 228 242
228 228 242
228 228 242
228 228 242
228 228 242
228 228 242
228 228 242
228 228 242
228 228 242
228 228 242
228 228 242
228 228 242
228 228 242
228 228 242
228 228 242
228 228 242
228 228 242
228 228 242
228 228 242
228 228 242
228 228 242
228 228 242
228 228 242
228 228 242
228 228 242
228 228 242
228 228 242
228 228 242
228 228 242
228 228 242
228 228 242
228 228 242
228 228 242
228 228 242
227 227 242
227 227 242
227 227 242
227 227 242
227 227 242
227 227 242
227 227 242
227 227 242
227 227 242
228 228 242
227 227 242
228 228 242
228 228 242
228 228 242
228 228 242
228 228 242
228 228 242
228 228 242
228 228 242
228 228 242
228 228 242
228 228 242
228 228 242
228 228 242
228 228 242
228 228 242
228 228 242
228 228 242
228 228 242
228 228 242
228 228 242
228 228 242
228 228 242
228 228 242
228 228 242
228 228 242
228 228 242
228 228 242
228 228 242
228 228 242
228 228 242
228 228 242
228 228 242
228 228 242
228 228 242
228 228 242
228 228 242
228 228 242
228 228 242
228 228 242
228 228 242
228 228 242
228 228 242
228 228 242
228 228 242
228 228 242
228 228 242
228 228 242
228 228 242
228 228 242
228 228 242
228 228 242
228 228 242
228 228 242
228 228 242
228 228 242
228 228 242
228 228 242
228 228 242
228 228 242
228 228 242
227 227 242
228 228 242
228 228 242
228 228 242
228 228 242
228 228 242
228 228 242
228 228 242
228 228 242
228 228 242
228 228 242
228 228 242
228 228 242
228 228 242
228 228 242
228 228 242
228 228 242
228 228 242
228 228 242
228 228 242
228 228 242
228 228 242
229 229 242
229 229 242
229 229 242
229 229 242
229 229 242
229 229 242
229 229 242
229 229 242
229 229 242
228 228 242
229 229 242
229 229 242
229 229 242
229 229 242
228 228 242
229 229 242
229 229 242
229 229 242
228 228 242
228 228 242
228 228 242
229 229 242
229 229 242
229 229 242
229 229 242
228 228 242
229 229 242
229 229 242
229 229 242
228 228 242
228 228 242
228 228 242
228 228 242
228 228 242
228 228 242
228 228 242
228 228 242
228 228 242
228 228 242
228 228 242
228 228 242
228 228 242
228 228 242
228 228 242
